<svg width="24" height="24" viewBox="0 0 24 24" fill="none" xmlns="http://www.w3.org/2000/svg">
<path d="M3.35288 15.0496L4.08306 14.8783L3.35288 15.0496ZM3.35288 8.95043L2.6227 8.77915L3.35288 8.95043ZM20.6471 8.95043L21.3773 8.77915L20.6471 8.95043ZM20.6471 15.0496L19.9169 14.8783L20.6471 15.0496ZM15.0496 20.6471L14.8783 19.9169L15.0496 20.6471ZM8.95044 20.6471L9.12171 19.9169L8.95044 20.6471ZM8.95043 3.35287L8.77915 2.62269L8.95043 3.35287ZM15.0496 3.35287L15.2208 2.62269L15.0496 3.35287ZM4.08306 14.8783C3.63898 12.9851 3.63898 11.0149 4.08306 9.12171L2.6227 8.77915C2.12577 10.8976 2.12577 13.1024 2.6227 15.2209L4.08306 14.8783ZM19.9169 9.12171C20.361 11.0149 20.361 12.9851 19.9169 14.8783L21.3773 15.2208C21.8742 13.1024 21.8742 10.8976 21.3773 8.77915L19.9169 9.12171ZM14.8783 19.9169C12.9851 20.361 11.0149 20.361 9.12171 19.9169L8.77916 21.3773C10.8976 21.8742 13.1024 21.8742 15.2208 21.3773L14.8783 19.9169ZM9.12171 4.08306C11.0149 3.63898 12.9851 3.63898 14.8783 4.08305L15.2208 2.62269C13.1024 2.12577 10.8976 2.12576 8.77915 2.62269L9.12171 4.08306ZM9.12171 19.9169C6.62161 19.3305 4.6695 17.3784 4.08306 14.8783L2.6227 15.2209C3.33924 18.2756 5.72442 20.6608 8.77916 21.3773L9.12171 19.9169ZM15.2208 21.3773C18.2756 20.6608 20.6608 18.2756 21.3773 15.2208L19.9169 14.8783C19.3305 17.3784 17.3784 19.3305 14.8783 19.9169L15.2208 21.3773ZM14.8783 4.08305C17.3784 4.6695 19.3305 6.6216 19.9169 9.12171L21.3773 8.77915C20.6608 5.72441 18.2756 3.33924 15.2208 2.62269L14.8783 4.08305ZM8.77915 2.62269C5.72441 3.33924 3.33924 5.72441 2.6227 8.77915L4.08306 9.12171C4.6695 6.6216 6.6216 4.6695 9.12171 4.08306L8.77915 2.62269Z" fill="black"/>
<path d="M3.35288 15.0496L2.6227 15.2209L3.35288 15.0496ZM4.08306 9.12171C4.17765 8.71844 3.92742 8.31484 3.52415 8.22025C3.12089 8.12565 2.71729 8.37588 2.6227 8.77915L4.08306 9.12171ZM20.6471 8.95043L21.3773 8.77915L20.6471 8.95043ZM20.6471 15.0496L19.9169 14.8783L20.6471 15.0496ZM15.0496 20.6471L14.8783 19.9169L15.0496 20.6471ZM8.95044 20.6471L8.77916 21.3773L8.95044 20.6471ZM15.2208 2.62269C14.8176 2.5281 14.414 2.77833 14.3194 3.1816C14.2248 3.58487 14.475 3.98846 14.8783 4.08305L15.2208 2.62269ZM4.08306 14.8783C3.63898 12.9851 3.63898 11.0149 4.08306 9.12171L2.6227 8.77915C2.12577 10.8976 2.12577 13.1024 2.6227 15.2209L4.08306 14.8783ZM19.9169 9.12171C20.361 11.0149 20.361 12.9851 19.9169 14.8783L21.3773 15.2208C21.8742 13.1024 21.8742 10.8976 21.3773 8.77915L19.9169 9.12171ZM14.8783 19.9169C12.9851 20.361 11.0149 20.361 9.12171 19.9169L8.77916 21.3773C10.8976 21.8742 13.1024 21.8742 15.2208 21.3773L14.8783 19.9169ZM9.12171 19.9169C6.62161 19.3305 4.6695 17.3784 4.08306 14.8783L2.6227 15.2209C3.33924 18.2756 5.72442 20.6608 8.77916 21.3773L9.12171 19.9169ZM15.2208 21.3773C18.2756 20.6608 20.6608 18.2756 21.3773 15.2208L19.9169 14.8783C19.3305 17.3784 17.3784 19.3305 14.8783 19.9169L15.2208 21.3773ZM14.8783 4.08305C17.3784 4.6695 19.3305 6.6216 19.9169 9.12171L21.3773 8.77915C20.6608 5.72441 18.2756 3.33924 15.2208 2.62269L14.8783 4.08305Z" fill="black"/>
<path d="M14.0961 15.1328C14.4456 15.3551 14.9092 15.2521 15.1315 14.9026C15.3539 14.5531 15.2508 14.0896 14.9014 13.8672L14.0961 15.1328ZM11.6602 12.6939H10.9102C10.9102 12.9503 11.0412 13.189 11.2575 13.3267L11.6602 12.6939ZM12.4102 9C12.4102 8.58579 12.0744 8.25 11.6602 8.25C11.2459 8.25 10.9102 8.58579 10.9102 9H12.4102ZM14.9014 13.8672L12.0628 12.0611L11.2575 13.3267L14.0961 15.1328L14.9014 13.8672ZM12.4102 12.6939V9H10.9102V12.6939H12.4102Z" fill="black"/>
</svg>
