<?xml version="1.0" standalone="no"?>
<!DOCTYPE svg PUBLIC "-//W3C//DTD SVG 20010904//EN"
 "http://www.w3.org/TR/2001/REC-SVG-20010904/DTD/svg10.dtd">
<svg version="1.0" xmlns="http://www.w3.org/2000/svg"
 width="205.000000pt" height="205.000000pt" viewBox="0 0 205.000000 205.000000"
 preserveAspectRatio="xMidYMid meet">
<metadata>
Created by potrace 1.16, written by Peter Selinger 2001-2019
</metadata>
<g transform="translate(0.000000,205.000000) scale(0.100000,-0.100000)"
fill="#000000" stroke="none">
<path d="M669 1946 c-54 -19 -163 -81 -223 -126 -67 -51 -91 -93 -82 -146 19
-111 18 -181 -2 -227 -24 -55 -85 -102 -145 -112 -79 -14 -157 -70 -157 -114
0 -8 8 0 19 19 20 39 82 79 121 80 40 1 103 34 137 73 44 51 56 95 48 180 -14
153 -13 162 25 202 44 46 162 120 242 152 86 35 127 28 187 -30 68 -66 104
-81 186 -81 82 0 118 15 186 81 60 58 101 65 187 30 79 -32 199 -106 250 -156
51 -50 58 -83 36 -169 -16 -64 -16 -70 0 -127 23 -76 81 -137 146 -155 71 -18
113 -42 137 -79 13 -19 23 -28 23 -21 0 7 -17 29 -37 50 -28 27 -57 43 -108
58 -97 29 -136 72 -155 169 -7 36 -5 64 7 112 23 95 11 127 -80 199 -82 65
-213 137 -269 147 -56 10 -89 -1 -140 -50 -69 -65 -101 -79 -183 -79 -81 0
-115 15 -178 75 -64 61 -104 72 -178 45z"/>
<path d="M640 1912 c-74 -32 -159 -85 -213 -131 -46 -41 -54 -80 -33 -164 24
-95 6 -167 -58 -235 -39 -42 -71 -59 -135 -73 -101 -21 -131 -70 -139 -225
-11 -232 15 -292 142 -321 61 -14 76 -22 121 -67 72 -73 95 -168 60 -253 -8
-19 -15 -54 -15 -76 0 -36 6 -47 49 -88 84 -81 254 -169 327 -169 31 0 45 9
93 56 69 69 127 97 201 97 73 0 116 -20 189 -87 53 -49 66 -56 101 -56 49 0
166 56 257 124 83 61 97 83 89 143 -23 182 -18 224 41 293 28 34 113 80 148
80 34 0 85 39 103 78 24 54 24 330 0 384 -17 39 -69 78 -103 78 -31 1 -97 34
-129 66 -65 66 -86 150 -61 245 8 35 13 75 10 90 -12 53 -145 154 -275 210
-101 43 -141 37 -205 -31 -51 -54 -101 -74 -180 -74 -79 0 -129 20 -180 74
-63 67 -106 74 -205 32z m526 -607 c61 -30 118 -89 147 -154 29 -64 29 -188 0
-252 -30 -66 -86 -124 -151 -156 -48 -23 -70 -28 -137 -28 -67 0 -89 5 -137
28 -65 32 -121 90 -151 156 -29 64 -29 188 -1 252 75 164 268 233 430 154z"/>
<path d="M1995 1043 c0 -105 -4 -170 -13 -195 -18 -52 -70 -94 -125 -102 -72
-11 -134 -57 -164 -122 -26 -58 -27 -68 -7 -240 5 -48 3 -54 -27 -88 -67 -77
-259 -186 -326 -186 -43 0 -78 20 -117 66 -38 46 -108 76 -177 76 -72 0 -133
-27 -180 -79 -20 -22 -47 -47 -60 -56 -13 -10 -17 -17 -10 -17 7 0 39 26 70
59 60 63 100 81 180 81 74 0 116 -19 181 -81 56 -55 64 -59 107 -59 53 0 124
31 223 96 133 87 172 149 145 228 -32 92 -10 201 51 257 31 28 102 59 134 59
11 0 40 18 64 40 37 34 45 49 56 102 13 66 14 233 2 286 -4 19 -7 -34 -7 -125z"/>
</g>
</svg>
