<svg version="1.0" xmlns="http://www.w3.org/2000/svg"
    width="108.000000pt" height="108.000000pt" viewBox="0 0 108.000000 108.000000"
    preserveAspectRatio="xMidYMid meet">

    <g transform="translate(0.000000,108.000000) scale(0.100000,-0.100000)"
        fill="#000000" stroke="none">
        <path d="M542 1038 c-7 -7 -12 -42 -12 -85 l0 -73 -72 -82 c-40 -45 -88 -98
-105 -119 l-33 -37 0 -279 0 -278 68 -25 c63 -24 80 -25 306 -28 260 -4 276
-1 302 50 16 31 18 76 5 97 -6 10 -2 23 11 42 17 22 20 38 16 79 -4 38 0 61
15 91 18 36 19 46 8 75 -11 30 -10 37 8 60 37 47 18 129 -36 153 -13 6 -83 11
-159 11 l-134 0 6 28 c4 15 11 37 15 50 14 36 11 139 -5 175 -16 39 -61 82
-99 96 -38 15 -90 14 -105 -1z"/>
        <path d="M0 380 l0 -330 125 0 125 0 0 330 0 330 -125 0 -125 0 0 -330z"/>
    </g>
</svg>
