<svg version="1.0" xmlns="http://www.w3.org/2000/svg"
    width="156.000000pt" height="156.000000pt" viewBox="0 0 156.000000 156.000000"
    preserveAspectRatio="xMidYMid meet">

    <g transform="translate(0.000000,156.000000) scale(0.100000,-0.100000)"
        fill="#000000" stroke="none">
        <path d="M160 892 l0 -460 253 -4 c206 -3 259 -7 290 -20 l37 -17 0 385 c0
424 0 427 -63 492 -66 70 -90 75 -314 80 l-203 4 0 -460z"/>
        <path d="M1015 1341 c-52 -9 -92 -31 -132 -73 -62 -65 -63 -69 -63 -483 0
-206 1 -375 3 -375 1 0 20 7 42 15 31 11 98 14 288 15 l247 0 0 455 0 455
-172 -1 c-95 -1 -191 -5 -213 -8z"/>
        <path d="M0 730 l0 -450 273 0 c280 0 368 -9 436 -45 31 -15 31 -15 31 10 0
41 -26 81 -67 101 -34 17 -67 19 -298 22 -163 2 -264 7 -272 14 -10 8 -13 97
-13 404 l0 394 -45 0 -45 0 0 -450z"/>
        <path d="M1470 785 c0 -380 -1 -395 -19 -405 -12 -6 -113 -10 -258 -10 -141 0
-254 -5 -277 -11 -56 -15 -96 -59 -96 -103 l0 -35 46 20 c73 31 160 39 437 39
l257 0 0 450 0 450 -45 0 -45 0 0 -395z"/>
    </g>
</svg>
