<svg version="1.0" xmlns="http://www.w3.org/2000/svg"
    width="138.000000pt" height="138.000000pt" viewBox="0 0 138.000000 138.000000"
    preserveAspectRatio="xMidYMid meet">

    <g transform="translate(0.000000,138.000000) scale(0.100000,-0.100000)"
        fill="#000000" stroke="none">
        <path d="M425 1330 c-31 -13 -372 -362 -380 -388 -7 -24 9 -56 47 -94 l20 -20
220 220 c218 217 220 220 201 239 -27 27 -66 53 -78 52 -5 0 -19 -4 -30 -9z"/>
        <path d="M137 1242 c-52 -53 -62 -95 -29 -125 17 -15 23 -12 95 61 75 75 77
79 59 95 -34 31 -73 22 -125 -31z"/>
        <path d="M363 1017 c-298 -298 -289 -279 -189 -375 41 -40 73 -62 87 -62 33 0
539 506 539 539 0 14 -22 46 -62 87 -96 100 -77 109 -375 -189z"/>
        <path d="M571 806 c-67 -68 -73 -77 -60 -92 27 -34 211 -214 218 -214 3 0 40
33 80 74 67 68 73 77 60 92 -26 32 -212 214 -218 214 -4 0 -40 -33 -80 -74z"/>
        <path d="M838 542 c-189 -188 -258 -264 -258 -281 0 -14 22 -46 62 -87 96
-100 77 -109 375 189 298 298 289 279 189 375 -41 40 -73 62 -87 62 -17 0 -93
-69 -281 -258z"/>
        <path d="M1046 331 l-218 -219 20 -20 c38 -38 70 -54 94 -47 28 8 376 351 389
383 11 27 0 58 -34 95 -15 15 -27 27 -29 27 -2 0 -102 -98 -222 -219z"/>
        <path d="M1175 200 c-76 -76 -78 -80 -60 -95 39 -29 77 -19 128 33 52 53 62
95 29 125 -17 16 -23 12 -97 -63z"/>
    </g>
</svg>
