<svg version="1.0" xmlns="http://www.w3.org/2000/svg"
    width="126.000000pt" height="126.000000pt" viewBox="0 0 126.000000 126.000000"
    preserveAspectRatio="xMidYMid meet">

    <g transform="translate(0.000000,126.000000) scale(0.100000,-0.100000)"
        fill="#000000" stroke="none">
        <path d="M819 1237 c-75 -50 -86 -137 -26 -204 82 -89 227 -30 227 92 0 106
-115 170 -201 112z"/>
        <path d="M372 1011 c-15 -16 -50 -74 -79 -129 -47 -91 -51 -104 -42 -132 13
-35 44 -60 75 -60 35 0 67 33 109 114 l40 76 79 0 78 0 -14 -22 c-8 -13 -61
-105 -118 -205 l-104 -183 -157 0 c-139 0 -159 -2 -180 -19 -33 -27 -33 -95 0
-122 21 -17 42 -19 215 -19 218 0 218 0 263 80 15 28 31 50 34 50 14 0 139
-103 139 -114 0 -7 -20 -62 -45 -124 -25 -61 -45 -119 -45 -128 0 -25 55 -74
84 -74 46 0 73 38 136 198 43 110 58 160 54 178 -4 16 -40 52 -95 97 -49 39
-89 75 -89 80 0 8 69 131 95 170 11 16 17 11 54 -47 64 -97 79 -98 228 -16
116 64 143 88 143 127 0 28 -50 83 -76 83 -10 0 -53 -18 -97 -41 -43 -22 -80
-39 -81 -37 -2 2 -22 31 -45 66 -34 50 -47 62 -68 62 -44 0 -113 40 -142 81
l-26 38 -148 1 -149 0 -26 -29z"/>
    </g>
</svg>
