<svg version="1.0" xmlns="http://www.w3.org/2000/svg"
    width="105.000000pt" height="75.000000pt" viewBox="0 0 105.000000 75.000000"
    preserveAspectRatio="xMidYMid meet">

    <g transform="translate(0.000000,75.000000) scale(0.100000,-0.100000)"
        fill="#000000" stroke="none">
        <path d="M20 730 c-17 -17 -20 -33 -20 -115 0 -148 -52 -135 525 -135 577 0
525 -13 525 135 0 148 52 135 -525 135 -472 0 -486 -1 -505 -20z m940 -130 l0
-30 -135 0 -135 0 0 30 0 30 135 0 135 0 0 -30z"/>
        <path d="M20 250 c-17 -17 -20 -33 -20 -115 0 -148 -52 -135 525 -135 577 0
525 -13 525 135 0 148 52 135 -525 135 -472 0 -486 -1 -505 -20z m940 -100 l0
-30 -270 0 -270 0 0 30 0 30 270 0 270 0 0 -30z"/>
    </g>
</svg>