<svg width="414" height="215" viewBox="0 0 414 215" fill="none" xmlns="http://www.w3.org/2000/svg">
<g clip-path="url(#clip0_4267_3442)">
<path d="M362.5 88.3805C356.97 86.2533 353.267 82.7671 349.13 77.6874L351.087 73.8654C355.409 80.0186 356.762 83.3116 362.442 83.0431L362.5 88.3805Z" fill="#FFB900"/>
<path d="M286.823 100.366C280.886 101.626 276.006 100.611 270.078 98.4256L270.215 93.873C276.78 96.9256 279.439 99.1082 284.477 95.5938L286.823 100.366Z" fill="#14CCA1"/>
<path d="M136.029 76.5151C133.114 80.3704 129.908 82.3926 125.617 84.288L123.908 81.6273C128.884 79.867 131.27 79.7058 132.789 75.0459L136.029 76.5151Z" fill="#FF5C33"/>
<path d="M35.1196 188.346C28.4887 188.448 23.599 186.455 17.8919 183.032L19.2541 178.411C25.3936 182.827 27.6321 185.595 33.9048 183.013L35.1196 188.346Z" fill="#007BFF"/>
<path d="M51.1394 75.3731C46.2252 71.5334 43.7394 66.9337 41.4227 60.6727L44.978 57.5734C47.056 64.9376 47.1732 68.5876 53.1898 70.1538L51.1394 75.3731Z" fill="#14CCA1"/>
<path d="M79.9323 116.906C74.062 120.703 68.6463 121.67 61.7006 121.872L60.4458 117.048C68.3027 117.5 71.7757 118.667 75.9802 112.9L79.9323 116.906Z" fill="#007BFF"/>
<path d="M165.699 9.65838C159.85 12.8332 154.563 13.3155 147.904 12.9496L146.98 8.20438C154.482 9.26667 157.746 10.6701 162.154 5.46633L165.699 9.65838Z" fill="#FFB900"/>
<path d="M246.611 24.1325C241.917 21.6121 238.927 18.0841 235.72 13.1258L237.787 9.97451C241.071 15.9137 241.986 18.9913 247.02 19.4116L246.611 24.1325Z" fill="#14CCA1"/>
<path d="M320.391 45.3827C325.741 42.4795 328.769 38.5614 331.874 33.0677L328.789 29.7143C325.78 36.2784 325.195 39.6371 319.058 40.2675L320.391 45.3827Z" fill="#FF5C33"/>
<g opacity="0.837">
<g opacity="0.837">
<path opacity="0.837" d="M131.636 191.931C126.459 188.616 123.34 184.306 120.035 178.343L122.6 174.943C125.911 182.017 126.741 185.625 132.445 186.58L131.636 191.931Z" fill="#FF5C33"/>
</g>
</g>
<path d="M318.481 163.74C316.143 170.194 312.771 174.411 307.938 179.067L304.692 176.508C310.486 171.708 313.516 170.28 313.73 163.507L318.481 163.74Z" fill="#FF5C33"/>
<path d="M105.527 50.1961C106.754 50.2389 107.783 49.2795 107.826 48.0532C107.869 46.827 106.909 45.7981 105.682 45.7553C104.455 45.7125 103.426 46.6718 103.383 47.8981C103.341 49.1244 104.3 50.1532 105.527 50.1961Z" fill="#FF5C33"/>
<path d="M282.047 56.3601C283.273 56.403 284.303 55.4436 284.345 54.2173C284.388 52.991 283.428 51.9622 282.202 51.9194C280.975 51.8765 279.946 52.8359 279.903 54.0622C279.86 55.2885 280.82 56.3173 282.047 56.3601Z" fill="#FFB900"/>
<path d="M337.722 126.042C338.949 126.085 339.978 125.125 340.021 123.899C340.064 122.673 339.104 121.644 337.877 121.601C336.651 121.558 335.622 122.518 335.579 123.744C335.536 124.97 336.496 125.999 337.722 126.042Z" fill="#FF5C33"/>
<path d="M105.933 140.467C107.16 140.509 108.189 139.55 108.232 138.324C108.275 137.097 107.315 136.069 106.088 136.026C104.862 135.983 103.832 136.942 103.79 138.169C103.747 139.395 104.707 140.424 105.933 140.467Z" fill="#14CCA1"/>
<path d="M5.5883 110.796L0.988281 115.084L5.27798 119.682L9.878 115.394L5.5883 110.796Z" fill="#FFB900"/>
<path d="M391.596 116.998L386.996 121.286L391.286 125.885L395.886 121.597L391.596 116.998Z" fill="#14CCA1"/>
</g>
<defs>
<clipPath id="clip0_4267_3442">
<rect width="427" height="200" fill="white" transform="translate(5) rotate(2)"/>
</clipPath>
</defs>
</svg>
