<svg width="161" height="74" viewBox="0 0 161 74" fill="none" xmlns="http://www.w3.org/2000/svg">
<path d="M199.936 90.508L199.935 90.5082L93.3587 106.134L93.4664 105.854C93.4664 105.854 93.4664 105.854 93.4664 105.854C73.0639 98.0081 52.3929 97.732 35.7541 97.5097C34.9059 97.4984 34.0681 97.4872 33.2415 97.4751C24.7059 97.3507 17.3731 97.1352 11.8173 95.7529C6.27417 94.3737 2.57239 91.8533 1.18251 87.1629C-2.22715 75.4203 4.79552 67.0445 12.8779 59.2114C13.9073 58.2139 14.9542 57.2247 15.9975 56.239C19.0318 53.3722 22.0356 50.5342 24.4885 47.6002C27.7893 43.6522 30.1374 39.4812 30.2395 34.75L30.2395 34.75C30.3395 30.0707 30.4644 24.8436 31.2414 19.895C32.0188 14.9442 33.4445 10.3049 36.1238 6.78707C38.7933 3.28205 42.7237 0.868367 48.5689 0.387933C54.4288 -0.0937059 62.2222 1.3677 72.593 5.65132L72.7075 5.37404L72.593 5.65134C78.7654 8.19964 85.7474 9.28718 92.9933 9.76818C98.1914 10.1132 103.542 10.1467 108.834 10.1798C110.916 10.1928 112.988 10.2058 115.038 10.2376C122.313 10.3505 129.323 10.7007 135.556 12.1222C141.786 13.5429 147.221 16.0294 151.364 20.4007C153.248 22.4009 155 24.3282 156.666 26.1603C158.578 28.2624 160.376 30.2392 162.126 32.0571C165.416 35.4724 168.587 38.3786 172.157 40.6229C179.313 45.1227 188.017 46.9302 202.384 44.9813L202.384 44.9813C211.648 43.7201 218.898 44.4471 223.867 46.5945C228.823 48.7364 231.495 52.2797 231.689 56.6935C231.884 61.1345 229.575 66.5335 224.378 72.3657C219.187 78.1922 211.14 84.4191 199.936 90.508Z" fill="#98E9B8" stroke="black" stroke-width="0.6"/>
</svg>
