<svg width="24" height="24" viewBox="0 0 24 24" fill="none" xmlns="http://www.w3.org/2000/svg">
<path d="M3.10172 13.3015L3.84326 13.1892L3.84326 13.1892L3.10172 13.3015ZM3.0942 13.2519L2.35266 13.3642L2.35266 13.3642L3.0942 13.2519ZM3.0942 10.7481L2.35266 10.6358L2.35266 10.6358L3.0942 10.7481ZM3.10172 10.6985L3.84326 10.8108L3.10172 10.6985ZM10.0499 6.48581L9.5031 5.97251L9.5031 5.97251L10.0499 6.48581ZM10.5914 5.90899L11.1382 6.42229L11.1382 6.42229L10.5914 5.90899ZM10.5914 18.091L10.0446 18.6043L10.0446 18.6043L10.5914 18.091ZM10.0499 17.5142L10.5968 17.0009L10.5968 17.0009L10.0499 17.5142ZM15.4719 7.33668L16.2029 7.16874L16.2029 7.16874L15.4719 7.33668ZM15.4719 16.6633L16.2029 16.8313L16.2029 16.8313L15.4719 16.6633ZM5.69169 16.5595L5.94999 15.8554L5.94998 15.8554L5.69169 16.5595ZM5.69169 7.44046L5.4334 6.73634L5.4334 6.73634L5.69169 7.44046ZM8.12819 7.75638H8.86607V6.25638H8.12819V7.75638ZM8.86607 16.2436H8.12819V17.7436H8.86607V16.2436ZM3.84326 13.1892L3.83575 13.1396L2.35266 13.3642L2.36017 13.4138L3.84326 13.1892ZM3.83575 10.8604L3.84326 10.8108L2.36017 10.5862L2.35266 10.6358L3.83575 10.8604ZM10.5968 6.99911L11.1382 6.42229L10.0446 5.39569L9.5031 5.97251L10.5968 6.99911ZM11.1382 17.5777L10.5968 17.0009L9.5031 18.0275L10.0446 18.6043L11.1382 17.5777ZM14.741 7.50462C15.4197 10.4588 15.4197 13.5412 14.741 16.4954L16.2029 16.8313C16.9324 13.656 16.9324 10.344 16.2029 7.16874L14.741 7.50462ZM10.0446 18.6043C12.0816 20.7744 15.5444 19.6972 16.2029 16.8313L14.741 16.4954C14.3315 18.2774 12.2942 18.8092 11.1382 17.5777L10.0446 18.6043ZM11.1382 6.42229C12.2942 5.19083 14.3315 5.72257 14.741 7.50462L16.2029 7.16874C15.5444 4.30284 12.0816 3.22562 10.0446 5.39569L11.1382 6.42229ZM3.83575 13.1396C3.72142 12.3847 3.72142 11.6153 3.83575 10.8604L2.35266 10.6358C2.21578 11.5396 2.21578 12.4604 2.35266 13.3642L3.83575 13.1396ZM8.12819 16.2436C7.38731 16.2436 6.65108 16.1126 5.94999 15.8554L5.4334 17.2637C6.29897 17.5812 7.21001 17.7436 8.12819 17.7436V16.2436ZM5.94999 8.14458C6.65108 7.8874 7.38731 7.75638 8.12819 7.75638V6.25638C7.21001 6.25638 6.29897 6.41883 5.4334 6.73634L5.94999 8.14458ZM5.94998 15.8554C4.854 15.4534 4.0325 14.4387 3.84326 13.1892L2.36017 13.4138C2.62679 15.1743 3.7951 16.6627 5.4334 17.2637L5.94998 15.8554ZM8.86607 17.7436C9.09755 17.7436 9.32788 17.8408 9.5031 18.0275L10.5968 17.0009C10.1467 16.5214 9.5243 16.2436 8.86607 16.2436V17.7436ZM8.86607 7.75638C9.5243 7.75638 10.1467 7.47863 10.5968 6.99911L9.5031 5.97251C9.32788 6.15919 9.09755 6.25638 8.86607 6.25638V7.75638ZM5.4334 6.73634C3.7951 7.33732 2.62679 8.82572 2.36017 10.5862L3.84326 10.8108C4.0325 9.56127 4.854 8.54662 5.94999 8.14458L5.4334 6.73634Z" fill="black"/>
<path d="M19.3647 6.34465C19.0028 6.14322 18.5461 6.27335 18.3446 6.63529C18.1432 6.99723 18.2733 7.45393 18.6353 7.65535L19.3647 6.34465ZM18.6353 16.3446C18.2733 16.5461 18.1432 17.0028 18.3446 17.3647C18.5461 17.7267 19.0028 17.8568 19.3647 17.6554L18.6353 16.3446ZM18.6353 7.65535C20.2096 8.53149 21.25 10.1565 21.25 12H22.75C22.75 9.57046 21.3772 7.4646 19.3647 6.34465L18.6353 7.65535ZM21.25 12C21.25 13.8435 20.2096 15.4685 18.6353 16.3446L19.3647 17.6554C21.3772 16.5354 22.75 14.4295 22.75 12H21.25Z" fill="black"/>
<path d="M18.9165 9.37629C18.5721 9.14625 18.1063 9.23902 17.8763 9.58348C17.6463 9.92795 17.739 10.3937 18.0835 10.6237L18.9165 9.37629ZM18.0835 13.3763C17.739 13.6063 17.6463 14.0721 17.8763 14.4165C18.1063 14.761 18.5721 14.8537 18.9165 14.6237L18.0835 13.3763ZM18.0835 10.6237C18.4554 10.8721 18.75 11.3741 18.75 12H20.25C20.25 10.9166 19.7402 9.92635 18.9165 9.37629L18.0835 10.6237ZM18.75 12C18.75 12.6259 18.4554 13.1279 18.0835 13.3763L18.9165 14.6237C19.7402 14.0736 20.25 13.0834 20.25 12H18.75Z" fill="black"/>
</svg>
